<?xml version="1.0" encoding="UTF-8"?>
<svg xmlns="http://www.w3.org/2000/svg" xmlns:xlink="http://www.w3.org/1999/xlink" width="128pt" height="128pt" viewBox="0 0 128 128" version="1.1">
<defs>
<clipPath id="clip1">
  <path d="M 23.070312 1.304688 L 104.992188 1.304688 L 104.992188 74.96875 L 23.070312 74.96875 Z M 23.070312 1.304688 "/>
</clipPath>
<clipPath id="clip2">
  <path d="M 22 21 L 106 21 L 106 127 L 22 127 Z M 22 21 "/>
</clipPath>
<clipPath id="clip3">
  <path d="M 105.761719 67.835938 C 105.761719 93.289062 87.230469 126.695312 64.035156 126.695312 C 40.835938 126.695312 22.308594 93.289062 22.308594 67.835938 C 22.308594 42.378906 40.984375 21.789062 64.035156 21.789062 C 87.078125 21.789062 105.761719 42.378906 105.761719 67.835938 Z M 105.761719 67.835938 "/>
</clipPath>
<clipPath id="clip4">
  <path d="M 22 21 L 106 21 L 106 127 L 22 127 Z M 22 21 "/>
</clipPath>
<clipPath id="clip5">
  <path d="M 105.699219 67.832031 C 105.699219 93.289062 87.167969 126.695312 63.972656 126.695312 C 40.777344 126.695312 22.25 93.289062 22.25 67.832031 C 22.25 42.378906 40.929688 21.789062 63.972656 21.789062 C 87.019531 21.789062 105.699219 42.378906 105.699219 67.832031 Z M 105.699219 67.832031 "/>
</clipPath>
</defs>
<g id="surface1">
<g clip-path="url(#clip1)" clip-rule="nonzero">
<path style="fill-rule:nonzero;fill:rgb(47.45098%,47.45098%,47.45098%);fill-opacity:1;stroke-width:3.175;stroke-linecap:butt;stroke-linejoin:miter;stroke:rgb(17.647059%,17.647059%,17.647059%);stroke-opacity:1;stroke-miterlimit:4;" d="M 172.607706 -141.712317 L 189.541213 -141.712317 L 189.541213 -126.485725 L 172.607706 -126.485725 Z M 172.607706 -141.712317 " transform="matrix(4.837856,0,0,4.837856,-811.980951,686.888503)"/>
</g>
<g clip-path="url(#clip2)" clip-rule="nonzero">
<g clip-path="url(#clip3)" clip-rule="nonzero">
<path style="fill-rule:nonzero;fill:rgb(74.117647%,74.117647%,74.117647%);fill-opacity:1;stroke-width:8.467;stroke-linecap:butt;stroke-linejoin:miter;stroke:rgb(61.960784%,61.960784%,61.960784%);stroke-opacity:1;stroke-miterlimit:4;" d="M 52.917278 283.2419 C 52.917278 288.503141 49.08681 295.408317 44.292267 295.408317 C 39.496916 295.408317 35.667256 288.503141 35.667256 283.2419 C 35.667256 277.979852 39.527598 273.723867 44.292267 273.723867 C 49.055321 273.723867 52.917278 277.979852 52.917278 283.2419 Z M 52.917278 283.2419 " transform="matrix(4.837856,0,0,4.837856,-150.244463,-1302.447653)"/>
</g>
</g>
<path style=" stroke:none;fill-rule:nonzero;fill:rgb(17.647059%,17.647059%,17.647059%);fill-opacity:1;" d="M 71.460938 65.273438 C 71.460938 71.039062 68.132812 78.652344 64.035156 78.652344 C 59.929688 78.652344 56.609375 71.039062 56.609375 65.273438 C 56.609375 59.503906 59.929688 57.773438 64.035156 57.773438 C 68.132812 57.773438 71.460938 59.503906 71.460938 65.273438 Z M 71.460938 65.273438 "/>
<g clip-path="url(#clip4)" clip-rule="nonzero">
<g clip-path="url(#clip5)" clip-rule="nonzero">
<path style="fill:none;stroke-width:2.96;stroke-linecap:butt;stroke-linejoin:miter;stroke:rgb(17.647059%,17.647059%,17.647059%);stroke-opacity:1;stroke-miterlimit:4;" d="M 61.383359 253.608093 C 61.383359 258.870141 57.552892 265.775317 52.758348 265.775317 C 47.963804 265.775317 44.134145 258.870141 44.134145 253.608093 C 44.134145 248.346852 47.995294 244.090867 52.758348 244.090867 C 57.522209 244.090867 61.383359 248.346852 61.383359 253.608093 Z M 61.383359 253.608093 " transform="matrix(4.837856,0,0,4.837856,-191.264646,-1159.087459)"/>
</g>
</g>
<path style=" stroke:none;fill-rule:nonzero;fill:rgb(37.254902%,24.705882%,7.843137%);fill-opacity:1;" d="M 50.550781 72.265625 L 50.546875 72.265625 C 48.519531 71.09375 49.171875 66.175781 52 61.273438 L 57.117188 52.410156 C 59.945312 47.511719 63.882812 44.488281 65.910156 45.660156 L 65.914062 45.660156 C 67.941406 46.832031 67.289062 51.75 64.460938 56.648438 L 59.34375 65.515625 C 56.515625 70.414062 52.578125 73.4375 50.550781 72.265625 Z M 50.550781 72.265625 "/>
</g>
</svg>
